<svg width="100" height="64" viewBox="0 0 100 64" fill="none" xmlns="http://www.w3.org/2000/svg">
<path d="M9.38 48.172V58H6.986V53.954H3.262V58H0.868V48.172H3.262V52.022H6.986V48.172H9.38ZM18.8782 48.172V50.09H16.2742V58H13.8802V50.09H11.2762V48.172H18.8782ZM31.9097 48.172V58H29.5157V52.106L27.3177 58H25.3857L23.1737 52.092V58H20.7797V48.172H23.6077L26.3657 54.976L29.0957 48.172H31.9097ZM36.7253 56.152H39.8613V58H34.3313V48.172H36.7253V56.152ZM51.32 52.96C51.8893 53.0813 52.3466 53.366 52.692 53.814C53.0373 54.2527 53.21 54.7567 53.21 55.326C53.21 56.1473 52.9206 56.8007 52.342 57.286C51.7726 57.762 50.9746 58 49.948 58H45.37V48.172H49.794C50.7926 48.172 51.572 48.4007 52.132 48.858C52.7013 49.3153 52.986 49.936 52.986 50.72C52.986 51.2987 52.832 51.7793 52.524 52.162C52.2253 52.5447 51.824 52.8107 51.32 52.96ZM47.764 52.148H49.332C49.724 52.148 50.0226 52.064 50.228 51.896C50.4426 51.7187 50.55 51.462 50.55 51.126C50.55 50.79 50.4426 50.5333 50.228 50.356C50.0226 50.1787 49.724 50.09 49.332 50.09H47.764V52.148ZM49.528 56.068C49.9293 56.068 50.2373 55.9793 50.452 55.802C50.676 55.6153 50.788 55.3493 50.788 55.004C50.788 54.6587 50.6713 54.388 50.438 54.192C50.214 53.996 49.9013 53.898 49.5 53.898H47.764V56.068H49.528ZM61.4165 56.264H57.7485L57.1605 58H54.6545L58.2105 48.172H60.9825L64.5385 58H62.0045L61.4165 56.264ZM60.8005 54.416L59.5825 50.818L58.3785 54.416H60.8005ZM69.8767 58.098C69.1581 58.098 68.5141 57.9813 67.9447 57.748C67.3754 57.5147 66.9181 57.1693 66.5727 56.712C66.2367 56.2547 66.0594 55.704 66.0407 55.06H68.5887C68.6261 55.424 68.7521 55.704 68.9667 55.9C69.1814 56.0867 69.4614 56.18 69.8067 56.18C70.1614 56.18 70.4414 56.1007 70.6467 55.942C70.8521 55.774 70.9547 55.5453 70.9547 55.256C70.9547 55.0133 70.8707 54.8127 70.7027 54.654C70.5441 54.4953 70.3434 54.3647 70.1007 54.262C69.8674 54.1593 69.5314 54.0427 69.0927 53.912C68.4581 53.716 67.9401 53.52 67.5387 53.324C67.1374 53.128 66.7921 52.8387 66.5027 52.456C66.2134 52.0733 66.0687 51.574 66.0687 50.958C66.0687 50.0433 66.4001 49.3293 67.0627 48.816C67.7254 48.2933 68.5887 48.032 69.6527 48.032C70.7354 48.032 71.6081 48.2933 72.2707 48.816C72.9334 49.3293 73.2881 50.048 73.3347 50.972H70.7447C70.7261 50.6547 70.6094 50.4073 70.3947 50.23C70.1801 50.0433 69.9047 49.95 69.5687 49.95C69.2794 49.95 69.0461 50.0293 68.8687 50.188C68.6914 50.3373 68.6027 50.5567 68.6027 50.846C68.6027 51.1633 68.7521 51.4107 69.0507 51.588C69.3494 51.7653 69.8161 51.9567 70.4507 52.162C71.0854 52.3767 71.5987 52.582 71.9907 52.778C72.3921 52.974 72.7374 53.2587 73.0267 53.632C73.3161 54.0053 73.4607 54.486 73.4607 55.074C73.4607 55.634 73.3161 56.1427 73.0267 56.6C72.7467 57.0573 72.3361 57.4213 71.7947 57.692C71.2534 57.9627 70.6141 58.098 69.8767 58.098ZM78.028 48.172V58H75.634V48.172H78.028ZM80.0569 53.072C80.0569 52.1013 80.2669 51.238 80.6869 50.482C81.1069 49.7167 81.6903 49.124 82.4369 48.704C83.1929 48.2747 84.0469 48.06 84.9989 48.06C86.1656 48.06 87.1643 48.368 87.9949 48.984C88.8256 49.6 89.3809 50.44 89.6609 51.504H87.0289C86.8329 51.0933 86.5529 50.7807 86.1889 50.566C85.8343 50.3513 85.4283 50.244 84.9709 50.244C84.2336 50.244 83.6363 50.5007 83.1789 51.014C82.7216 51.5273 82.4929 52.2133 82.4929 53.072C82.4929 53.9307 82.7216 54.6167 83.1789 55.13C83.6363 55.6433 84.2336 55.9 84.9709 55.9C85.4283 55.9 85.8343 55.7927 86.1889 55.578C86.5529 55.3633 86.8329 55.0507 87.0289 54.64H89.6609C89.3809 55.704 88.8256 56.544 87.9949 57.16C87.1643 57.7667 86.1656 58.07 84.9989 58.07C84.0469 58.07 83.1929 57.86 82.4369 57.44C81.6903 57.0107 81.1069 56.418 80.6869 55.662C80.2669 54.906 80.0569 54.0427 80.0569 53.072ZM95.383 58.098C94.6643 58.098 94.0203 57.9813 93.451 57.748C92.8817 57.5147 92.4243 57.1693 92.079 56.712C91.743 56.2547 91.5657 55.704 91.547 55.06H94.095C94.1323 55.424 94.2583 55.704 94.473 55.9C94.6877 56.0867 94.9677 56.18 95.313 56.18C95.6677 56.18 95.9477 56.1007 96.153 55.942C96.3583 55.774 96.461 55.5453 96.461 55.256C96.461 55.0133 96.377 54.8127 96.209 54.654C96.0503 54.4953 95.8497 54.3647 95.607 54.262C95.3737 54.1593 95.0377 54.0427 94.599 53.912C93.9643 53.716 93.4463 53.52 93.045 53.324C92.6437 53.128 92.2983 52.8387 92.009 52.456C91.7197 52.0733 91.575 51.574 91.575 50.958C91.575 50.0433 91.9063 49.3293 92.569 48.816C93.2317 48.2933 94.095 48.032 95.159 48.032C96.2417 48.032 97.1143 48.2933 97.777 48.816C98.4397 49.3293 98.7943 50.048 98.841 50.972H96.251C96.2323 50.6547 96.1157 50.4073 95.901 50.23C95.6863 50.0433 95.411 49.95 95.075 49.95C94.7857 49.95 94.5523 50.0293 94.375 50.188C94.1977 50.3373 94.109 50.5567 94.109 50.846C94.109 51.1633 94.2583 51.4107 94.557 51.588C94.8557 51.7653 95.3223 51.9567 95.957 52.162C96.5917 52.3767 97.105 52.582 97.497 52.778C97.8983 52.974 98.2437 53.2587 98.533 53.632C98.8223 54.0053 98.967 54.486 98.967 55.074C98.967 55.634 98.8223 56.1427 98.533 56.6C98.253 57.0573 97.8423 57.4213 97.301 57.692C96.7597 57.9627 96.1203 58.098 95.383 58.098Z" fill="#222831"/>
<g clip-path="url(#clip0_59_180)">
<path d="M53.2325 0H40C38.6739 0 37.4021 0.526784 36.4645 1.46447C35.5268 2.40215 35 3.67392 35 5V35C35 36.3261 35.5268 37.5979 36.4645 38.5355C37.4021 39.4732 38.6739 40 40 40H60C61.3261 40 62.5979 39.4732 63.5355 38.5355C64.4732 37.5979 65 36.3261 65 35V11.7675C64.9999 11.1045 64.7364 10.4687 64.2675 10L55 0.7325C54.5313 0.263627 53.8955 0.000141594 53.2325 0V0ZM53.75 8.75V3.75L61.25 11.25H56.25C55.587 11.25 54.9511 10.9866 54.4822 10.5178C54.0134 10.0489 53.75 9.41304 53.75 8.75ZM46.615 19.115C46.7312 18.9988 46.8692 18.9066 47.021 18.8437C47.1729 18.7808 47.3356 18.7484 47.5 18.7484C47.6644 18.7484 47.8271 18.7808 47.979 18.8437C48.1308 18.9066 48.2688 18.9988 48.385 19.115C48.5012 19.2312 48.5934 19.3692 48.6563 19.521C48.7192 19.6729 48.7516 19.8356 48.7516 20C48.7516 20.1644 48.7192 20.3271 48.6563 20.479C48.5934 20.6308 48.5012 20.7688 48.385 20.885L44.2675 25L48.385 29.115C48.6197 29.3497 48.7516 29.6681 48.7516 30C48.7516 30.3319 48.6197 30.6503 48.385 30.885C48.1503 31.1197 47.8319 31.2516 47.5 31.2516C47.1681 31.2516 46.8497 31.1197 46.615 30.885L41.615 25.885C41.4986 25.7689 41.4062 25.6309 41.3432 25.4791C41.2802 25.3272 41.2478 25.1644 41.2478 25C41.2478 24.8356 41.2802 24.6728 41.3432 24.5209C41.4062 24.3691 41.4986 24.2311 41.615 24.115L46.615 19.115V19.115ZM53.385 19.115L58.385 24.115C58.5014 24.2311 58.5938 24.3691 58.6568 24.5209C58.7198 24.6728 58.7522 24.8356 58.7522 25C58.7522 25.1644 58.7198 25.3272 58.6568 25.4791C58.5938 25.6309 58.5014 25.7689 58.385 25.885L53.385 30.885C53.1503 31.1197 52.8319 31.2516 52.5 31.2516C52.1681 31.2516 51.8497 31.1197 51.615 30.885C51.3803 30.6503 51.2484 30.3319 51.2484 30C51.2484 29.6681 51.3803 29.3497 51.615 29.115L55.7325 25L51.615 20.885C51.4988 20.7688 51.4066 20.6308 51.3437 20.479C51.2808 20.3271 51.2484 20.1644 51.2484 20C51.2484 19.8356 51.2808 19.6729 51.3437 19.521C51.4066 19.3692 51.4988 19.2312 51.615 19.115C51.7312 18.9988 51.8692 18.9066 52.021 18.8437C52.1729 18.7808 52.3356 18.7484 52.5 18.7484C52.6644 18.7484 52.8271 18.7808 52.979 18.8437C53.1308 18.9066 53.2688 18.9988 53.385 19.115V19.115Z" fill="#222831"/>
</g>
<defs>
<clipPath id="clip0_59_180">
<rect width="40" height="40" fill="white" transform="translate(30)"/>
</clipPath>
</defs>
</svg>
