<svg width="102" height="65" viewBox="0 0 102 65" fill="none" xmlns="http://www.w3.org/2000/svg">
<path d="M9.38 49.172V59H6.986V54.954H3.262V59H0.868V49.172H3.262V53.022H6.986V49.172H9.38ZM18.8782 49.172V51.09H16.2742V59H13.8802V51.09H11.2762V49.172H18.8782ZM31.9097 49.172V59H29.5157V53.106L27.3177 59H25.3857L23.1737 53.092V59H20.7797V49.172H23.6077L26.3657 55.976L29.0957 49.172H31.9097ZM36.7253 57.152H39.8613V59H34.3313V49.172H36.7253V57.152ZM51.53 49.172V55.864C51.53 56.9 51.236 57.698 50.648 58.258C50.0693 58.818 49.2853 59.098 48.296 59.098C47.26 59.098 46.4293 58.804 45.804 58.216C45.1786 57.628 44.866 56.7927 44.866 55.71H47.246C47.246 56.1207 47.33 56.4333 47.498 56.648C47.666 56.8533 47.9086 56.956 48.226 56.956C48.5153 56.956 48.7393 56.8627 48.898 56.676C49.0566 56.4893 49.136 56.2187 49.136 55.864V49.172H51.53ZM57.7197 59.098C57.001 59.098 56.357 58.9813 55.7877 58.748C55.2184 58.5147 54.761 58.1693 54.4157 57.712C54.0797 57.2547 53.9024 56.704 53.8837 56.06H56.4317C56.469 56.424 56.595 56.704 56.8097 56.9C57.0244 57.0867 57.3044 57.18 57.6497 57.18C58.0044 57.18 58.2844 57.1007 58.4897 56.942C58.695 56.774 58.7977 56.5453 58.7977 56.256C58.7977 56.0133 58.7137 55.8127 58.5457 55.654C58.387 55.4953 58.1864 55.3647 57.9437 55.262C57.7104 55.1593 57.3744 55.0427 56.9357 54.912C56.301 54.716 55.783 54.52 55.3817 54.324C54.9804 54.128 54.635 53.8387 54.3457 53.456C54.0564 53.0733 53.9117 52.574 53.9117 51.958C53.9117 51.0433 54.243 50.3293 54.9057 49.816C55.5684 49.2933 56.4317 49.032 57.4957 49.032C58.5784 49.032 59.451 49.2933 60.1137 49.816C60.7764 50.3293 61.131 51.048 61.1777 51.972H58.5877C58.569 51.6547 58.4524 51.4073 58.2377 51.23C58.023 51.0433 57.7477 50.95 57.4117 50.95C57.1224 50.95 56.889 51.0293 56.7117 51.188C56.5344 51.3373 56.4457 51.5567 56.4457 51.846C56.4457 52.1633 56.595 52.4107 56.8937 52.588C57.1924 52.7653 57.659 52.9567 58.2937 53.162C58.9284 53.3767 59.4417 53.582 59.8337 53.778C60.235 53.974 60.5804 54.2587 60.8697 54.632C61.159 55.0053 61.3037 55.486 61.3037 56.074C61.3037 56.634 61.159 57.1427 60.8697 57.6C60.5897 58.0573 60.179 58.4213 59.6377 58.692C59.0964 58.9627 58.457 59.098 57.7197 59.098ZM70.8258 49.172C71.8618 49.172 72.7671 49.3773 73.5418 49.788C74.3164 50.1987 74.9138 50.7773 75.3338 51.524C75.7631 52.2613 75.9778 53.1153 75.9778 54.086C75.9778 55.0473 75.7631 55.9013 75.3338 56.648C74.9138 57.3947 74.3118 57.9733 73.5278 58.384C72.7531 58.7947 71.8524 59 70.8258 59H67.1438V49.172H70.8258ZM70.6718 56.928C71.5771 56.928 72.2818 56.6807 72.7858 56.186C73.2898 55.6913 73.5418 54.9913 73.5418 54.086C73.5418 53.1807 73.2898 52.476 72.7858 51.972C72.2818 51.468 71.5771 51.216 70.6718 51.216H69.5378V56.928H70.6718ZM82.6637 59.098C81.7397 59.098 80.8903 58.8833 80.1157 58.454C79.3503 58.0247 78.739 57.4273 78.2817 56.662C77.8337 55.8873 77.6097 55.0193 77.6097 54.058C77.6097 53.0967 77.8337 52.2333 78.2817 51.468C78.739 50.7027 79.3503 50.1053 80.1157 49.676C80.8903 49.2467 81.7397 49.032 82.6637 49.032C83.5877 49.032 84.4323 49.2467 85.1977 49.676C85.9723 50.1053 86.579 50.7027 87.0177 51.468C87.4657 52.2333 87.6897 53.0967 87.6897 54.058C87.6897 55.0193 87.4657 55.8873 87.0177 56.662C86.5697 57.4273 85.963 58.0247 85.1977 58.454C84.4323 58.8833 83.5877 59.098 82.6637 59.098ZM82.6637 56.914C83.4477 56.914 84.073 56.6527 84.5397 56.13C85.0157 55.6073 85.2537 54.9167 85.2537 54.058C85.2537 53.19 85.0157 52.4993 84.5397 51.986C84.073 51.4633 83.4477 51.202 82.6637 51.202C81.8703 51.202 81.2357 51.4587 80.7597 51.972C80.293 52.4853 80.0597 53.1807 80.0597 54.058C80.0597 54.926 80.293 55.6213 80.7597 56.144C81.2357 56.6573 81.8703 56.914 82.6637 56.914ZM100.852 49.172V59H98.4575V53.106L96.2595 59H94.3275L92.1155 53.092V59H89.7215V49.172H92.5495L95.3075 55.976L98.0375 49.172H100.852Z" fill="#222831"/>
<path fill-rule="evenodd" clip-rule="evenodd" d="M31 1.25C31 0.918479 31.1317 0.600537 31.3661 0.366117C31.6005 0.131696 31.9185 0 32.25 0L42.25 0C42.5815 0 42.8995 0.131696 43.1339 0.366117C43.3683 0.600537 43.5 0.918479 43.5 1.25C43.5 1.58152 43.3683 1.89946 43.1339 2.13388C42.8995 2.3683 42.5815 2.5 42.25 2.5H32.25C31.9185 2.5 31.6005 2.3683 31.3661 2.13388C31.1317 1.89946 31 1.58152 31 1.25V1.25ZM31 6.25C31 5.91848 31.1317 5.60054 31.3661 5.36612C31.6005 5.1317 31.9185 5 32.25 5H49.75C50.0815 5 50.3995 5.1317 50.6339 5.36612C50.8683 5.60054 51 5.91848 51 6.25C51 6.58152 50.8683 6.89946 50.6339 7.13388C50.3995 7.3683 50.0815 7.5 49.75 7.5H32.25C31.9185 7.5 31.6005 7.3683 31.3661 7.13388C31.1317 6.89946 31 6.58152 31 6.25ZM53.5 6.25C53.5 5.91848 53.6317 5.60054 53.8661 5.36612C54.1005 5.1317 54.4185 5 54.75 5H67.25C67.5815 5 67.8995 5.1317 68.1339 5.36612C68.3683 5.60054 68.5 5.91848 68.5 6.25C68.5 6.58152 68.3683 6.89946 68.1339 7.13388C67.8995 7.3683 67.5815 7.5 67.25 7.5H54.75C54.4185 7.5 54.1005 7.3683 53.8661 7.13388C53.6317 6.89946 53.5 6.58152 53.5 6.25ZM31 11.25C31 10.9185 31.1317 10.6005 31.3661 10.3661C31.6005 10.1317 31.9185 10 32.25 10H39.75C40.0815 10 40.3995 10.1317 40.6339 10.3661C40.8683 10.6005 41 10.9185 41 11.25C41 11.5815 40.8683 11.8995 40.6339 12.1339C40.3995 12.3683 40.0815 12.5 39.75 12.5H32.25C31.9185 12.5 31.6005 12.3683 31.3661 12.1339C31.1317 11.8995 31 11.5815 31 11.25ZM43.5 11.25C43.5 10.9185 43.6317 10.6005 43.8661 10.3661C44.1005 10.1317 44.4185 10 44.75 10H57.25C57.5815 10 57.8995 10.1317 58.1339 10.3661C58.3683 10.6005 58.5 10.9185 58.5 11.25C58.5 11.5815 58.3683 11.8995 58.1339 12.1339C57.8995 12.3683 57.5815 12.5 57.25 12.5H44.75C44.4185 12.5 44.1005 12.3683 43.8661 12.1339C43.6317 11.8995 43.5 11.5815 43.5 11.25ZM61 11.25C61 10.9185 61.1317 10.6005 61.3661 10.3661C61.6005 10.1317 61.9185 10 62.25 10H69.75C70.0815 10 70.3995 10.1317 70.6339 10.3661C70.8683 10.6005 71 10.9185 71 11.25C71 11.5815 70.8683 11.8995 70.6339 12.1339C70.3995 12.3683 70.0815 12.5 69.75 12.5H62.25C61.9185 12.5 61.6005 12.3683 61.3661 12.1339C61.1317 11.8995 61 11.5815 61 11.25ZM31 16.25C31 15.9185 31.1317 15.6005 31.3661 15.3661C31.6005 15.1317 31.9185 15 32.25 15H47.25C47.5815 15 47.8995 15.1317 48.1339 15.3661C48.3683 15.6005 48.5 15.9185 48.5 16.25C48.5 16.5815 48.3683 16.8995 48.1339 17.1339C47.8995 17.3683 47.5815 17.5 47.25 17.5H32.25C31.9185 17.5 31.6005 17.3683 31.3661 17.1339C31.1317 16.8995 31 16.5815 31 16.25ZM51 16.25C51 15.9185 51.1317 15.6005 51.3661 15.3661C51.6005 15.1317 51.9185 15 52.25 15H64.75C65.0815 15 65.3995 15.1317 65.6339 15.3661C65.8683 15.6005 66 15.9185 66 16.25C66 16.5815 65.8683 16.8995 65.6339 17.1339C65.3995 17.3683 65.0815 17.5 64.75 17.5H52.25C51.9185 17.5 51.6005 17.3683 51.3661 17.1339C51.1317 16.8995 51 16.5815 51 16.25ZM31 21.25C31 20.9185 31.1317 20.6005 31.3661 20.3661C31.6005 20.1317 31.9185 20 32.25 20H44.75C45.0815 20 45.3995 20.1317 45.6339 20.3661C45.8683 20.6005 46 20.9185 46 21.25C46 21.5815 45.8683 21.8995 45.6339 22.1339C45.3995 22.3683 45.0815 22.5 44.75 22.5H32.25C31.9185 22.5 31.6005 22.3683 31.3661 22.1339C31.1317 21.8995 31 21.5815 31 21.25ZM48.5 21.25C48.5 20.9185 48.6317 20.6005 48.8661 20.3661C49.1005 20.1317 49.4185 20 49.75 20H67.25C67.5815 20 67.8995 20.1317 68.1339 20.3661C68.3683 20.6005 68.5 20.9185 68.5 21.25C68.5 21.5815 68.3683 21.8995 68.1339 22.1339C67.8995 22.3683 67.5815 22.5 67.25 22.5H49.75C49.4185 22.5 49.1005 22.3683 48.8661 22.1339C48.6317 21.8995 48.5 21.5815 48.5 21.25ZM31 26.25C31 25.9185 31.1317 25.6005 31.3661 25.3661C31.6005 25.1317 31.9185 25 32.25 25H52.25C52.5815 25 52.8995 25.1317 53.1339 25.3661C53.3683 25.6005 53.5 25.9185 53.5 26.25C53.5 26.5815 53.3683 26.8995 53.1339 27.1339C52.8995 27.3683 52.5815 27.5 52.25 27.5H32.25C31.9185 27.5 31.6005 27.3683 31.3661 27.1339C31.1317 26.8995 31 26.5815 31 26.25ZM31 31.25C31 30.9185 31.1317 30.6005 31.3661 30.3661C31.6005 30.1317 31.9185 30 32.25 30H42.25C42.5815 30 42.8995 30.1317 43.1339 30.3661C43.3683 30.6005 43.5 30.9185 43.5 31.25C43.5 31.5815 43.3683 31.8995 43.1339 32.1339C42.8995 32.3683 42.5815 32.5 42.25 32.5H32.25C31.9185 32.5 31.6005 32.3683 31.3661 32.1339C31.1317 31.8995 31 31.5815 31 31.25ZM31 36.25C31 35.9185 31.1317 35.6005 31.3661 35.3661C31.6005 35.1317 31.9185 35 32.25 35H37.25C37.5815 35 37.8995 35.1317 38.1339 35.3661C38.3683 35.6005 38.5 35.9185 38.5 36.25C38.5 36.5815 38.3683 36.8995 38.1339 37.1339C37.8995 37.3683 37.5815 37.5 37.25 37.5H32.25C31.9185 37.5 31.6005 37.3683 31.3661 37.1339C31.1317 36.8995 31 36.5815 31 36.25Z" fill="#222831"/>
</svg>
