<svg width="130" height="65" viewBox="0 0 130 65" fill="none" xmlns="http://www.w3.org/2000/svg">
<path d="M9.38 49.172V59H6.986V54.954H3.262V59H0.868V49.172H3.262V53.022H6.986V49.172H9.38ZM18.8782 49.172V51.09H16.2742V59H13.8802V51.09H11.2762V49.172H18.8782ZM31.9097 49.172V59H29.5157V53.106L27.3177 59H25.3857L23.1737 53.092V59H20.7797V49.172H23.6077L26.3657 55.976L29.0957 49.172H31.9097ZM36.7253 57.152H39.8613V59H34.3313V49.172H36.7253V57.152ZM51.488 57.264H47.82L47.232 59H44.726L48.282 49.172H51.054L54.61 59H52.076L51.488 57.264ZM50.872 55.416L49.654 51.818L48.45 55.416H50.872ZM60.0742 49.172C61.1102 49.172 62.0156 49.3773 62.7902 49.788C63.5649 50.1987 64.1622 50.7773 64.5822 51.524C65.0116 52.2613 65.2262 53.1153 65.2262 54.086C65.2262 55.0473 65.0116 55.9013 64.5822 56.648C64.1622 57.3947 63.5602 57.9733 62.7762 58.384C62.0016 58.7947 61.1009 59 60.0742 59H56.3922V49.172H60.0742ZM59.9202 56.928C60.8256 56.928 61.5302 56.6807 62.0342 56.186C62.5382 55.6913 62.7902 54.9913 62.7902 54.086C62.7902 53.1807 62.5382 52.476 62.0342 51.972C61.5302 51.468 60.8256 51.216 59.9202 51.216H58.7862V56.928H59.9202ZM76.4901 49.172L73.0041 59H70.0081L66.5221 49.172H69.0701L71.5061 56.592L73.9561 49.172H76.4901ZM84.3087 57.264H80.6407L80.0527 59H77.5467L81.1027 49.172H83.8747L87.4307 59H84.8967L84.3087 57.264ZM83.6927 55.416L82.4747 51.818L81.2707 55.416H83.6927ZM98.0049 59H95.6109L91.6069 52.938V59H89.2129V49.172H91.6069L95.6109 55.262V49.172H98.0049V59ZM100.034 54.072C100.034 53.1013 100.244 52.238 100.664 51.482C101.084 50.7167 101.668 50.124 102.414 49.704C103.17 49.2747 104.024 49.06 104.976 49.06C106.143 49.06 107.142 49.368 107.972 49.984C108.803 50.6 109.358 51.44 109.638 52.504H107.006C106.81 52.0933 106.53 51.7807 106.166 51.566C105.812 51.3513 105.406 51.244 104.948 51.244C104.211 51.244 103.614 51.5007 103.156 52.014C102.699 52.5273 102.47 53.2133 102.47 54.072C102.47 54.9307 102.699 55.6167 103.156 56.13C103.614 56.6433 104.211 56.9 104.948 56.9C105.406 56.9 105.812 56.7927 106.166 56.578C106.53 56.3633 106.81 56.0507 107.006 55.64H109.638C109.358 56.704 108.803 57.544 107.972 58.16C107.142 58.7667 106.143 59.07 104.976 59.07C104.024 59.07 103.17 58.86 102.414 58.44C101.668 58.0107 101.084 57.418 100.664 56.662C100.244 55.906 100.034 55.0427 100.034 54.072ZM114.198 51.09V53.078H117.404V54.926H114.198V57.082H117.824V59H111.804V49.172H117.824V51.09H114.198ZM123.761 49.172C124.797 49.172 125.702 49.3773 126.477 49.788C127.251 50.1987 127.849 50.7773 128.269 51.524C128.698 52.2613 128.913 53.1153 128.913 54.086C128.913 55.0473 128.698 55.9013 128.269 56.648C127.849 57.3947 127.247 57.9733 126.463 58.384C125.688 58.7947 124.787 59 123.761 59H120.079V49.172H123.761ZM123.607 56.928C124.512 56.928 125.217 56.6807 125.721 56.186C126.225 55.6913 126.477 54.9913 126.477 54.086C126.477 53.1807 126.225 52.476 125.721 51.972C125.217 51.468 124.512 51.216 123.607 51.216H122.473V56.928H123.607Z" fill="#222831"/>
<path d="M56 0H69.2325C69.8955 0.000141594 70.5313 0.263627 71 0.7325L80.2675 10C80.7364 10.4687 80.9999 11.1045 81 11.7675V35C81 36.3261 80.4732 37.5979 79.5355 38.5355C78.5979 39.4732 77.3261 40 76 40H56C54.6739 40 53.4021 39.4732 52.4645 38.5355C51.5268 37.5979 51 36.3261 51 35V5C51 3.67392 51.5268 2.40215 52.4645 1.46447C53.4021 0.526784 54.6739 0 56 0V0ZM69.75 3.75V8.75C69.75 9.41304 70.0134 10.0489 70.4822 10.5178C70.9511 10.9866 71.587 11.25 72.25 11.25H77.25L69.75 3.75Z" fill="#222831"/>
<path d="M69.0975 16.4588C69.1216 16.3803 69.1301 16.2978 69.1223 16.2161C69.1146 16.1344 69.0908 16.055 69.0524 15.9824C69.014 15.9099 68.9617 15.8456 68.8984 15.7933C68.8352 15.741 68.7622 15.7016 68.6838 15.6775C68.6053 15.6534 68.5228 15.6449 68.4411 15.6527C68.3594 15.6604 68.28 15.6842 68.2074 15.7226C68.1349 15.761 68.0706 15.8133 68.0183 15.8766C67.966 15.9398 67.9266 16.0128 67.9025 16.0913L62.9025 32.3413C62.8538 32.4997 62.87 32.6711 62.9476 32.8176C63.0252 32.9641 63.1578 33.0738 63.3163 33.1225C63.4747 33.1712 63.6461 33.155 63.7926 33.0774C63.9391 32.9998 64.0488 32.8672 64.0975 32.7088L69.0975 16.4588V16.4588ZM62.0675 19.5825C62.1257 19.6406 62.1719 19.7095 62.2034 19.7855C62.2349 19.8614 62.2511 19.9428 62.2511 20.025C62.2511 20.1072 62.2349 20.1886 62.2034 20.2645C62.1719 20.3405 62.1257 20.4094 62.0675 20.4675L58.1337 24.4L62.0675 28.3325C62.1849 28.4499 62.2508 28.609 62.2508 28.775C62.2508 28.941 62.1849 29.1001 62.0675 29.2175C61.9501 29.3349 61.791 29.4008 61.625 29.4008C61.459 29.4008 61.2999 29.3349 61.1825 29.2175L56.8075 24.8425C56.7493 24.7844 56.7031 24.7155 56.6716 24.6395C56.6401 24.5636 56.6239 24.4822 56.6239 24.4C56.6239 24.3178 56.6401 24.2364 56.6716 24.1605C56.7031 24.0845 56.7493 24.0156 56.8075 23.9575L61.1825 19.5825C61.2406 19.5243 61.3095 19.4781 61.3855 19.4466C61.4614 19.4151 61.5428 19.3989 61.625 19.3989C61.7072 19.3989 61.7886 19.4151 61.8645 19.4466C61.9405 19.4781 62.0094 19.5243 62.0675 19.5825V19.5825ZM69.9325 19.5825C69.8743 19.6406 69.8281 19.7095 69.7966 19.7855C69.7651 19.8614 69.7489 19.9428 69.7489 20.025C69.7489 20.1072 69.7651 20.1886 69.7966 20.2645C69.8281 20.3405 69.8743 20.4094 69.9325 20.4675L73.8663 24.4L69.9325 28.3325C69.8744 28.3906 69.8283 28.4596 69.7968 28.5355C69.7654 28.6114 69.7492 28.6928 69.7492 28.775C69.7492 28.8572 69.7654 28.9386 69.7968 29.0145C69.8283 29.0904 69.8744 29.1594 69.9325 29.2175C69.9906 29.2756 70.0596 29.3217 70.1355 29.3532C70.2114 29.3846 70.2928 29.4008 70.375 29.4008C70.4572 29.4008 70.5386 29.3846 70.6145 29.3532C70.6904 29.3217 70.7594 29.2756 70.8175 29.2175L75.1925 24.8425C75.2507 24.7844 75.2969 24.7155 75.3284 24.6395C75.3599 24.5636 75.3761 24.4822 75.3761 24.4C75.3761 24.3178 75.3599 24.2364 75.3284 24.1605C75.2969 24.0845 75.2507 24.0156 75.1925 23.9575L70.8175 19.5825C70.7594 19.5243 70.6905 19.4781 70.6145 19.4466C70.5386 19.4151 70.4572 19.3989 70.375 19.3989C70.2928 19.3989 70.2114 19.4151 70.1355 19.4466C70.0595 19.4781 69.9906 19.5243 69.9325 19.5825V19.5825Z" fill="#E9ECEF"/>
</svg>
