<svg width="1443" height="368" viewBox="0 0 1443 368" fill="none" xmlns="http://www.w3.org/2000/svg">
<path d="M33.552 138.992H65.808V158H8.928V56.912H33.552V138.992ZM160.497 116.528C160.497 118.832 160.353 121.232 160.065 123.728H104.337C104.721 128.72 106.305 132.56 109.089 135.248C111.969 137.84 115.473 139.136 119.601 139.136C125.745 139.136 130.017 136.544 132.417 131.36H158.625C157.281 136.64 154.833 141.392 151.281 145.616C147.825 149.84 143.457 153.152 138.177 155.552C132.897 157.952 126.993 159.152 120.465 159.152C112.593 159.152 105.585 157.472 99.441 154.112C93.297 150.752 88.497 145.952 85.041 139.712C81.585 133.472 79.857 126.176 79.857 117.824C79.857 109.472 81.537 102.176 84.897 95.936C88.353 89.696 93.153 84.896 99.297 81.536C105.441 78.176 112.497 76.496 120.465 76.496C128.241 76.496 135.153 78.128 141.201 81.392C147.249 84.656 151.953 89.312 155.313 95.36C158.769 101.408 160.497 108.464 160.497 116.528ZM135.297 110.048C135.297 105.824 133.857 102.464 130.977 99.968C128.097 97.472 124.497 96.224 120.177 96.224C116.049 96.224 112.545 97.424 109.665 99.824C106.881 102.224 105.153 105.632 104.481 110.048H135.297ZM175.791 117.68C175.791 109.424 177.327 102.176 180.399 95.936C183.567 89.696 187.839 84.896 193.215 81.536C198.591 78.176 204.591 76.496 211.215 76.496C216.879 76.496 221.823 77.648 226.047 79.952C230.367 82.256 233.679 85.28 235.983 89.024V77.648H260.607V158H235.983V146.624C233.583 150.368 230.223 153.392 225.903 155.696C221.679 158 216.735 159.152 211.071 159.152C204.543 159.152 198.591 157.472 193.215 154.112C187.839 150.656 183.567 145.808 180.399 139.568C177.327 133.232 175.791 125.936 175.791 117.68ZM235.983 117.824C235.983 111.68 234.255 106.832 230.799 103.28C227.439 99.728 223.311 97.952 218.415 97.952C213.519 97.952 209.343 99.728 205.887 103.28C202.527 106.736 200.847 111.536 200.847 117.68C200.847 123.824 202.527 128.72 205.887 132.368C209.343 135.92 213.519 137.696 218.415 137.696C223.311 137.696 227.439 135.92 230.799 132.368C234.255 128.816 235.983 123.968 235.983 117.824ZM310.246 91.04C313.126 86.624 316.726 83.168 321.046 80.672C325.366 78.08 330.166 76.784 335.446 76.784V102.848H328.678C322.534 102.848 317.926 104.192 314.854 106.88C311.782 109.472 310.246 114.08 310.246 120.704V158H285.622V77.648H310.246V91.04ZM403.375 76.784C412.783 76.784 420.271 79.856 425.839 86C431.503 92.048 434.335 100.4 434.335 111.056V158H409.855V114.368C409.855 108.992 408.463 104.816 405.679 101.84C402.895 98.864 399.151 97.376 394.447 97.376C389.743 97.376 385.999 98.864 383.215 101.84C380.431 104.816 379.039 108.992 379.039 114.368V158H354.415V77.648H379.039V88.304C381.535 84.752 384.895 81.968 389.119 79.952C393.343 77.84 398.095 76.784 403.375 76.784ZM949.921 107.312C949.921 97.328 952.081 88.448 956.401 80.672C960.721 72.8 966.721 66.704 974.401 62.384C982.177 57.968 990.961 55.76 1000.75 55.76C1012.75 55.76 1023.02 58.928 1031.57 65.264C1040.11 71.6 1045.82 80.24 1048.7 91.184H1021.63C1019.62 86.96 1016.74 83.744 1012.99 81.536C1009.34 79.328 1005.17 78.224 1000.46 78.224C992.881 78.224 986.737 80.864 982.033 86.144C977.329 91.424 974.977 98.48 974.977 107.312C974.977 116.144 977.329 123.2 982.033 128.48C986.737 133.76 992.881 136.4 1000.46 136.4C1005.17 136.4 1009.34 135.296 1012.99 133.088C1016.74 130.88 1019.62 127.664 1021.63 123.44H1048.7C1045.82 134.384 1040.11 143.024 1031.57 149.36C1023.02 155.6 1012.75 158.72 1000.75 158.72C990.961 158.72 982.177 156.56 974.401 152.24C966.721 147.824 960.721 141.728 956.401 133.952C952.081 126.176 949.921 117.296 949.921 107.312ZM1107.56 159.152C1099.69 159.152 1092.58 157.472 1086.25 154.112C1080.01 150.752 1075.06 145.952 1071.42 139.712C1067.86 133.472 1066.09 126.176 1066.09 117.824C1066.09 109.568 1067.91 102.32 1071.56 96.08C1075.21 89.744 1080.2 84.896 1086.54 81.536C1092.87 78.176 1099.98 76.496 1107.85 76.496C1115.72 76.496 1122.82 78.176 1129.16 81.536C1135.5 84.896 1140.49 89.744 1144.14 96.08C1147.78 102.32 1149.61 109.568 1149.61 117.824C1149.61 126.08 1147.74 133.376 1143.99 139.712C1140.34 145.952 1135.3 150.752 1128.87 154.112C1122.54 157.472 1115.43 159.152 1107.56 159.152ZM1107.56 137.84C1112.26 137.84 1116.25 136.112 1119.51 132.656C1122.87 129.2 1124.55 124.256 1124.55 117.824C1124.55 111.392 1122.92 106.448 1119.66 102.992C1116.49 99.536 1112.55 97.808 1107.85 97.808C1103.05 97.808 1099.06 99.536 1095.9 102.992C1092.73 106.352 1091.14 111.296 1091.14 117.824C1091.14 124.256 1092.68 129.2 1095.75 132.656C1098.92 136.112 1102.86 137.84 1107.56 137.84ZM1164.98 117.68C1164.98 109.424 1166.51 102.176 1169.58 95.936C1172.75 89.696 1177.02 84.896 1182.4 81.536C1187.78 78.176 1193.78 76.496 1200.4 76.496C1205.68 76.496 1210.48 77.6 1214.8 79.808C1219.22 82.016 1222.67 84.992 1225.17 88.736V51.44H1249.79V158H1225.17V146.48C1222.86 150.32 1219.55 153.392 1215.23 155.696C1211.01 158 1206.06 159.152 1200.4 159.152C1193.78 159.152 1187.78 157.472 1182.4 154.112C1177.02 150.656 1172.75 145.808 1169.58 139.568C1166.51 133.232 1164.98 125.936 1164.98 117.68ZM1225.17 117.824C1225.17 111.68 1223.44 106.832 1219.98 103.28C1216.62 99.728 1212.5 97.952 1207.6 97.952C1202.7 97.952 1198.53 99.728 1195.07 103.28C1191.71 106.736 1190.03 111.536 1190.03 117.68C1190.03 123.824 1191.71 128.72 1195.07 132.368C1198.53 135.92 1202.7 137.696 1207.6 137.696C1212.5 137.696 1216.62 135.92 1219.98 132.368C1223.44 128.816 1225.17 123.968 1225.17 117.824ZM1350.55 116.528C1350.55 118.832 1350.41 121.232 1350.12 123.728H1294.39C1294.77 128.72 1296.36 132.56 1299.14 135.248C1302.02 137.84 1305.53 139.136 1309.65 139.136C1315.8 139.136 1320.07 136.544 1322.47 131.36H1348.68C1347.33 136.64 1344.89 141.392 1341.33 145.616C1337.88 149.84 1333.51 153.152 1328.23 155.552C1322.95 157.952 1317.05 159.152 1310.52 159.152C1302.65 159.152 1295.64 157.472 1289.49 154.112C1283.35 150.752 1278.55 145.952 1275.09 139.712C1271.64 133.472 1269.91 126.176 1269.91 117.824C1269.91 109.472 1271.59 102.176 1274.95 95.936C1278.41 89.696 1283.21 84.896 1289.35 81.536C1295.49 78.176 1302.55 76.496 1310.52 76.496C1318.29 76.496 1325.21 78.128 1331.25 81.392C1337.3 84.656 1342.01 89.312 1345.37 95.36C1348.82 101.408 1350.55 108.464 1350.55 116.528ZM1325.35 110.048C1325.35 105.824 1323.91 102.464 1321.03 99.968C1318.15 97.472 1314.55 96.224 1310.23 96.224C1306.1 96.224 1302.6 97.424 1299.72 99.824C1296.93 102.224 1295.21 105.632 1294.53 110.048H1325.35ZM1403.43 159.152C1396.42 159.152 1390.18 157.952 1384.71 155.552C1379.24 153.152 1374.92 149.888 1371.75 145.76C1368.58 141.536 1366.8 136.832 1366.42 131.648H1390.76C1391.04 134.432 1392.34 136.688 1394.64 138.416C1396.95 140.144 1399.78 141.008 1403.14 141.008C1406.21 141.008 1408.56 140.432 1410.2 139.28C1411.92 138.032 1412.79 136.448 1412.79 134.528C1412.79 132.224 1411.59 130.544 1409.19 129.488C1406.79 128.336 1402.9 127.088 1397.52 125.744C1391.76 124.4 1386.96 123.008 1383.12 121.568C1379.28 120.032 1375.97 117.68 1373.19 114.512C1370.4 111.248 1369.01 106.88 1369.01 101.408C1369.01 96.8 1370.26 92.624 1372.76 88.88C1375.35 85.04 1379.09 82.016 1383.99 79.808C1388.98 77.6 1394.88 76.496 1401.7 76.496C1411.78 76.496 1419.7 78.992 1425.46 83.984C1431.32 88.976 1434.68 95.6 1435.54 103.856H1412.79C1412.4 101.072 1411.16 98.864 1409.04 97.232C1407.03 95.6 1404.34 94.784 1400.98 94.784C1398.1 94.784 1395.89 95.36 1394.36 96.512C1392.82 97.568 1392.05 99.056 1392.05 100.976C1392.05 103.28 1393.25 105.008 1395.65 106.16C1398.15 107.312 1401.99 108.464 1407.17 109.616C1413.12 111.152 1417.97 112.688 1421.72 114.224C1425.46 115.664 1428.72 118.064 1431.51 121.424C1434.39 124.688 1435.88 129.104 1435.97 134.672C1435.97 139.376 1434.63 143.6 1431.94 147.344C1429.35 150.992 1425.56 153.872 1420.56 155.984C1415.67 158.096 1409.96 159.152 1403.43 159.152Z" fill="#222831"/>
<path d="M583.914 56.912V158H559.29V116.384H520.986V158H496.362V56.912H520.986V96.512H559.29V56.912H583.914ZM681.611 56.912V76.64H654.827V158H630.203V76.64H603.419V56.912H681.611ZM815.649 56.912V158H791.025V97.376L768.417 158H748.545L725.793 97.232V158H701.169V56.912H730.257L758.625 126.896L786.705 56.912H815.649ZM865.18 138.992H897.436V158H840.556V56.912H865.18V138.992Z" fill="#F77F00"/>
<path d="M557.962 209.84V218.928H572.618V227.376H557.962V237.232H574.538V246H547.018V201.072H574.538V209.84H557.962ZM582.667 228.08C582.667 224.411 583.35 221.189 584.715 218.416C586.123 215.643 588.022 213.509 590.411 212.016C592.8 210.523 595.467 209.776 598.411 209.776C600.928 209.776 603.126 210.288 605.003 211.312C606.923 212.336 608.395 213.68 609.419 215.344V210.288H620.363V246H609.419V240.944C608.352 242.608 606.859 243.952 604.939 244.976C603.062 246 600.864 246.512 598.347 246.512C595.446 246.512 592.8 245.765 590.411 244.272C588.022 242.736 586.123 240.581 584.715 237.808C583.35 234.992 582.667 231.749 582.667 228.08ZM609.419 228.144C609.419 225.413 608.651 223.259 607.115 221.68C605.622 220.101 603.787 219.312 601.611 219.312C599.435 219.312 597.579 220.101 596.043 221.68C594.55 223.216 593.803 225.349 593.803 228.08C593.803 230.811 594.55 232.987 596.043 234.608C597.579 236.187 599.435 236.976 601.611 236.976C603.787 236.976 605.622 236.187 607.115 234.608C608.651 233.029 609.419 230.875 609.419 228.144ZM646.008 246.512C642.894 246.512 640.12 245.979 637.688 244.912C635.256 243.845 633.336 242.395 631.928 240.56C630.52 238.683 629.731 236.592 629.56 234.288H640.376C640.504 235.525 641.08 236.528 642.104 237.296C643.128 238.064 644.387 238.448 645.88 238.448C647.246 238.448 648.291 238.192 649.016 237.68C649.784 237.125 650.168 236.421 650.168 235.568C650.168 234.544 649.635 233.797 648.568 233.328C647.502 232.816 645.774 232.261 643.384 231.664C640.824 231.067 638.691 230.448 636.984 229.808C635.278 229.125 633.806 228.08 632.568 226.672C631.331 225.221 630.712 223.28 630.712 220.848C630.712 218.8 631.267 216.944 632.376 215.28C633.528 213.573 635.192 212.229 637.368 211.248C639.587 210.267 642.211 209.776 645.24 209.776C649.72 209.776 653.24 210.885 655.8 213.104C658.403 215.323 659.896 218.267 660.28 221.936H650.168C649.998 220.699 649.443 219.717 648.504 218.992C647.608 218.267 646.414 217.904 644.92 217.904C643.64 217.904 642.659 218.16 641.976 218.672C641.294 219.141 640.952 219.803 640.952 220.656C640.952 221.68 641.486 222.448 642.552 222.96C643.662 223.472 645.368 223.984 647.672 224.496C650.318 225.179 652.472 225.861 654.136 226.544C655.8 227.184 657.251 228.251 658.488 229.744C659.768 231.195 660.43 233.157 660.472 235.632C660.472 237.723 659.875 239.6 658.68 241.264C657.528 242.885 655.843 244.165 653.624 245.104C651.448 246.043 648.91 246.512 646.008 246.512ZM675.872 206.576C673.952 206.576 672.373 206.021 671.136 204.912C669.941 203.76 669.344 202.352 669.344 200.688C669.344 198.981 669.941 197.573 671.136 196.464C672.373 195.312 673.952 194.736 675.872 194.736C677.749 194.736 679.285 195.312 680.48 196.464C681.717 197.573 682.336 198.981 682.336 200.688C682.336 202.352 681.717 203.76 680.48 204.912C679.285 206.021 677.749 206.576 675.872 206.576ZM681.312 210.288V246H670.368V210.288H681.312ZM703.387 198.64V246H692.443V198.64H703.387ZM750.998 210.288L728.598 262.96H716.822L725.014 244.784L710.486 210.288H722.71L730.966 232.624L739.158 210.288H750.998ZM769.932 235.888L762.828 254.256H755.852L759.564 235.888H769.932ZM525.979 297.072V305.84H507.675V315.312H521.371V323.824H507.675V342H496.731V297.072H525.979ZM545.875 312.24C547.155 310.277 548.755 308.741 550.675 307.632C552.595 306.48 554.728 305.904 557.075 305.904V317.488H554.067C551.336 317.488 549.288 318.085 547.923 319.28C546.557 320.432 545.875 322.48 545.875 325.424V342H534.931V306.288H545.875V312.24ZM599.169 323.568C599.169 324.592 599.105 325.659 598.978 326.768H574.209C574.38 328.987 575.084 330.693 576.321 331.888C577.601 333.04 579.159 333.616 580.993 333.616C583.724 333.616 585.623 332.464 586.689 330.16H598.338C597.74 332.507 596.652 334.619 595.074 336.496C593.538 338.373 591.596 339.845 589.25 340.912C586.903 341.979 584.279 342.512 581.377 342.512C577.879 342.512 574.764 341.765 572.033 340.272C569.303 338.779 567.169 336.645 565.633 333.872C564.097 331.099 563.329 327.856 563.329 324.144C563.329 320.432 564.076 317.189 565.569 314.416C567.105 311.643 569.239 309.509 571.969 308.016C574.7 306.523 577.836 305.776 581.377 305.776C584.833 305.776 587.906 306.501 590.594 307.952C593.281 309.403 595.372 311.472 596.866 314.16C598.401 316.848 599.169 319.984 599.169 323.568ZM587.969 320.688C587.969 318.811 587.329 317.317 586.049 316.208C584.769 315.099 583.169 314.544 581.25 314.544C579.415 314.544 577.857 315.077 576.577 316.144C575.34 317.211 574.572 318.725 574.273 320.688H587.969ZM641.807 323.568C641.807 324.592 641.743 325.659 641.615 326.768H616.847C617.018 328.987 617.722 330.693 618.959 331.888C620.239 333.04 621.796 333.616 623.631 333.616C626.362 333.616 628.26 332.464 629.327 330.16H640.975C640.378 332.507 639.29 334.619 637.711 336.496C636.175 338.373 634.234 339.845 631.887 340.912C629.54 341.979 626.916 342.512 624.015 342.512C620.516 342.512 617.402 341.765 614.671 340.272C611.94 338.779 609.807 336.645 608.271 333.872C606.735 331.099 605.967 327.856 605.967 324.144C605.967 320.432 606.714 317.189 608.207 314.416C609.743 311.643 611.876 309.509 614.607 308.016C617.338 306.523 620.474 305.776 624.015 305.776C627.471 305.776 630.543 306.501 633.231 307.952C635.919 309.403 638.01 311.472 639.503 314.16C641.039 316.848 641.807 319.984 641.807 323.568ZM630.607 320.688C630.607 318.811 629.967 317.317 628.687 316.208C627.407 315.099 625.807 314.544 623.887 314.544C622.052 314.544 620.495 315.077 619.215 316.144C617.978 317.211 617.21 318.725 616.911 320.688H630.607ZM665.367 324.08C665.367 320.411 666.05 317.189 667.415 314.416C668.823 311.643 670.722 309.509 673.111 308.016C675.5 306.523 678.167 305.776 681.111 305.776C683.628 305.776 685.826 306.288 687.703 307.312C689.623 308.336 691.095 309.68 692.119 311.344V306.288H703.063V342H692.119V336.944C691.052 338.608 689.559 339.952 687.639 340.976C685.762 342 683.564 342.512 681.047 342.512C678.146 342.512 675.5 341.765 673.111 340.272C670.722 338.736 668.823 336.581 667.415 333.808C666.05 330.992 665.367 327.749 665.367 324.08ZM692.119 324.144C692.119 321.413 691.351 319.259 689.815 317.68C688.322 316.101 686.487 315.312 684.311 315.312C682.135 315.312 680.279 316.101 678.743 317.68C677.25 319.216 676.503 321.349 676.503 324.08C676.503 326.811 677.25 328.987 678.743 330.608C680.279 332.187 682.135 332.976 684.311 332.976C686.487 332.976 688.322 332.187 689.815 330.608C691.351 329.029 692.119 326.875 692.119 324.144ZM735.94 305.904C740.122 305.904 743.45 307.269 745.924 310C748.442 312.688 749.7 316.4 749.7 321.136V342H738.82V322.608C738.82 320.219 738.202 318.363 736.964 317.04C735.727 315.717 734.063 315.056 731.972 315.056C729.882 315.056 728.218 315.717 726.98 317.04C725.743 318.363 725.124 320.219 725.124 322.608V342H714.18V306.288H725.124V311.024C726.234 309.445 727.727 308.208 729.604 307.312C731.482 306.373 733.594 305.904 735.94 305.904ZM758.33 324.08C758.33 320.411 759.012 317.189 760.378 314.416C761.786 311.643 763.684 309.509 766.074 308.016C768.463 306.523 771.13 305.776 774.074 305.776C776.42 305.776 778.554 306.267 780.474 307.248C782.436 308.229 783.972 309.552 785.082 311.216V294.64H796.026V342H785.082V336.88C784.058 338.587 782.586 339.952 780.666 340.976C778.788 342 776.591 342.512 774.074 342.512C771.13 342.512 768.463 341.765 766.074 340.272C763.684 338.736 761.786 336.581 760.378 333.808C759.012 330.992 758.33 327.749 758.33 324.08ZM785.082 324.144C785.082 321.413 784.314 319.259 782.778 317.68C781.284 316.101 779.45 315.312 777.274 315.312C775.098 315.312 773.242 316.101 771.706 317.68C770.212 319.216 769.466 321.349 769.466 324.08C769.466 326.811 770.212 328.987 771.706 330.608C773.242 332.187 775.098 332.976 777.274 332.976C779.45 332.976 781.284 332.187 782.778 330.608C784.314 329.029 785.082 326.875 785.082 324.144ZM853.154 297.072V305.84H834.85V315.312H848.546V323.824H834.85V342H823.906V297.072H853.154ZM897.37 306.288V342H886.426V337.136C885.316 338.715 883.802 339.995 881.882 340.976C880.004 341.915 877.914 342.384 875.61 342.384C872.879 342.384 870.468 341.787 868.378 340.592C866.287 339.355 864.666 337.584 863.514 335.28C862.362 332.976 861.786 330.267 861.786 327.152V306.288H872.666V325.68C872.666 328.069 873.284 329.925 874.522 331.248C875.759 332.571 877.423 333.232 879.514 333.232C881.647 333.232 883.332 332.571 884.57 331.248C885.807 329.925 886.426 328.069 886.426 325.68V306.288H897.37ZM930.19 305.904C934.372 305.904 937.7 307.269 940.174 310C942.692 312.688 943.95 316.4 943.95 321.136V342H933.07V322.608C933.07 320.219 932.452 318.363 931.214 317.04C929.977 315.717 928.313 315.056 926.222 315.056C924.132 315.056 922.468 315.717 921.23 317.04C919.993 318.363 919.374 320.219 919.374 322.608V342H908.43V306.288H919.374V311.024C920.484 309.445 921.977 308.208 923.854 307.312C925.732 306.373 927.844 305.904 930.19 305.904Z" fill="#04AA6D"/>
<g clip-path="url(#clip0_70_632)">
<path d="M885.5 207.25C887.158 207.25 888.747 207.908 889.919 209.081C891.092 210.253 891.75 211.842 891.75 213.5V244.75C891.75 246.408 891.092 247.997 889.919 249.169C888.747 250.342 887.158 251 885.5 251H810.5C808.842 251 807.253 250.342 806.081 249.169C804.908 247.997 804.25 246.408 804.25 244.75V213.5C804.25 211.842 804.908 210.253 806.081 209.081C807.253 207.908 808.842 207.25 810.5 207.25H885.5ZM810.5 201C807.185 201 804.005 202.317 801.661 204.661C799.317 207.005 798 210.185 798 213.5V244.75C798 248.065 799.317 251.245 801.661 253.589C804.005 255.933 807.185 257.25 810.5 257.25H885.5C888.815 257.25 891.995 255.933 894.339 253.589C896.683 251.245 898 248.065 898 244.75V213.5C898 210.185 896.683 207.005 894.339 204.661C891.995 202.317 888.815 201 885.5 201H810.5Z" fill="black"/>
<path d="M879.25 240.062C879.25 239.648 879.415 239.251 879.708 238.958C880.001 238.665 880.398 238.5 880.812 238.5H883.938C884.352 238.5 884.749 238.665 885.042 238.958C885.335 239.251 885.5 239.648 885.5 240.062V243.188C885.5 243.602 885.335 243.999 885.042 244.292C884.749 244.585 884.352 244.75 883.938 244.75H880.812C880.398 244.75 880.001 244.585 879.708 244.292C879.415 243.999 879.25 243.602 879.25 243.188V240.062ZM879.25 227.562C879.25 227.148 879.415 226.751 879.708 226.458C880.001 226.165 880.398 226 880.812 226H883.938C884.352 226 884.749 226.165 885.042 226.458C885.335 226.751 885.5 227.148 885.5 227.562V230.688C885.5 231.102 885.335 231.499 885.042 231.792C884.749 232.085 884.352 232.25 883.938 232.25H880.812C880.398 232.25 880.001 232.085 879.708 231.792C879.415 231.499 879.25 231.102 879.25 230.688V227.562ZM848 227.562C848 227.148 848.165 226.751 848.458 226.458C848.751 226.165 849.148 226 849.562 226H852.688C853.102 226 853.499 226.165 853.792 226.458C854.085 226.751 854.25 227.148 854.25 227.562V230.688C854.25 231.102 854.085 231.499 853.792 231.792C853.499 232.085 853.102 232.25 852.688 232.25H849.562C849.148 232.25 848.751 232.085 848.458 231.792C848.165 231.499 848 231.102 848 230.688V227.562ZM860.5 227.562C860.5 227.148 860.665 226.751 860.958 226.458C861.251 226.165 861.648 226 862.062 226H871.438C871.852 226 872.249 226.165 872.542 226.458C872.835 226.751 873 227.148 873 227.562V230.688C873 231.102 872.835 231.499 872.542 231.792C872.249 232.085 871.852 232.25 871.438 232.25H862.062C861.648 232.25 861.251 232.085 860.958 231.792C860.665 231.499 860.5 231.102 860.5 230.688V227.562ZM866.75 240.062C866.75 239.648 866.915 239.251 867.208 238.958C867.501 238.665 867.898 238.5 868.312 238.5H871.438C871.852 238.5 872.249 238.665 872.542 238.958C872.835 239.251 873 239.648 873 240.062V243.188C873 243.602 872.835 243.999 872.542 244.292C872.249 244.585 871.852 244.75 871.438 244.75H868.312C867.898 244.75 867.501 244.585 867.208 244.292C866.915 243.999 866.75 243.602 866.75 243.188V240.062ZM835.5 227.562C835.5 227.148 835.665 226.751 835.958 226.458C836.251 226.165 836.648 226 837.062 226H840.188C840.602 226 840.999 226.165 841.292 226.458C841.585 226.751 841.75 227.148 841.75 227.562V230.688C841.75 231.102 841.585 231.499 841.292 231.792C840.999 232.085 840.602 232.25 840.188 232.25H837.062C836.648 232.25 836.251 232.085 835.958 231.792C835.665 231.499 835.5 231.102 835.5 230.688V227.562ZM823 227.562C823 227.148 823.165 226.751 823.458 226.458C823.751 226.165 824.148 226 824.562 226H827.688C828.102 226 828.499 226.165 828.792 226.458C829.085 226.751 829.25 227.148 829.25 227.562V230.688C829.25 231.102 829.085 231.499 828.792 231.792C828.499 232.085 828.102 232.25 827.688 232.25H824.562C824.148 232.25 823.751 232.085 823.458 231.792C823.165 231.499 823 231.102 823 230.688V227.562ZM810.5 227.562C810.5 227.148 810.665 226.751 810.958 226.458C811.251 226.165 811.648 226 812.062 226H815.188C815.602 226 815.999 226.165 816.292 226.458C816.585 226.751 816.75 227.148 816.75 227.562V230.688C816.75 231.102 816.585 231.499 816.292 231.792C815.999 232.085 815.602 232.25 815.188 232.25H812.062C811.648 232.25 811.251 232.085 810.958 231.792C810.665 231.499 810.5 231.102 810.5 230.688V227.562ZM879.25 215.062C879.25 214.648 879.415 214.251 879.708 213.958C880.001 213.665 880.398 213.5 880.812 213.5H883.938C884.352 213.5 884.749 213.665 885.042 213.958C885.335 214.251 885.5 214.648 885.5 215.062V218.188C885.5 218.602 885.335 218.999 885.042 219.292C884.749 219.585 884.352 219.75 883.938 219.75H880.812C880.398 219.75 880.001 219.585 879.708 219.292C879.415 218.999 879.25 218.602 879.25 218.188V215.062ZM866.75 215.062C866.75 214.648 866.915 214.251 867.208 213.958C867.501 213.665 867.898 213.5 868.312 213.5H871.438C871.852 213.5 872.249 213.665 872.542 213.958C872.835 214.251 873 214.648 873 215.062V218.188C873 218.602 872.835 218.999 872.542 219.292C872.249 219.585 871.852 219.75 871.438 219.75H868.312C867.898 219.75 867.501 219.585 867.208 219.292C866.915 218.999 866.75 218.602 866.75 218.188V215.062ZM854.25 215.062C854.25 214.648 854.415 214.251 854.708 213.958C855.001 213.665 855.398 213.5 855.812 213.5H858.938C859.352 213.5 859.749 213.665 860.042 213.958C860.335 214.251 860.5 214.648 860.5 215.062V218.188C860.5 218.602 860.335 218.999 860.042 219.292C859.749 219.585 859.352 219.75 858.938 219.75H855.812C855.398 219.75 855.001 219.585 854.708 219.292C854.415 218.999 854.25 218.602 854.25 218.188V215.062ZM841.75 215.062C841.75 214.648 841.915 214.251 842.208 213.958C842.501 213.665 842.898 213.5 843.312 213.5H846.438C846.852 213.5 847.249 213.665 847.542 213.958C847.835 214.251 848 214.648 848 215.062V218.188C848 218.602 847.835 218.999 847.542 219.292C847.249 219.585 846.852 219.75 846.438 219.75H843.312C842.898 219.75 842.501 219.585 842.208 219.292C841.915 218.999 841.75 218.602 841.75 218.188V215.062ZM829.25 215.062C829.25 214.648 829.415 214.251 829.708 213.958C830.001 213.665 830.398 213.5 830.812 213.5H833.938C834.352 213.5 834.749 213.665 835.042 213.958C835.335 214.251 835.5 214.648 835.5 215.062V218.188C835.5 218.602 835.335 218.999 835.042 219.292C834.749 219.585 834.352 219.75 833.938 219.75H830.812C830.398 219.75 830.001 219.585 829.708 219.292C829.415 218.999 829.25 218.602 829.25 218.188V215.062ZM810.5 215.062C810.5 214.648 810.665 214.251 810.958 213.958C811.251 213.665 811.648 213.5 812.062 213.5H821.438C821.852 213.5 822.249 213.665 822.542 213.958C822.835 214.251 823 214.648 823 215.062V218.188C823 218.602 822.835 218.999 822.542 219.292C822.249 219.585 821.852 219.75 821.438 219.75H812.062C811.648 219.75 811.251 219.585 810.958 219.292C810.665 218.999 810.5 218.602 810.5 218.188V215.062ZM810.5 240.062C810.5 239.648 810.665 239.251 810.958 238.958C811.251 238.665 811.648 238.5 812.062 238.5H815.188C815.602 238.5 815.999 238.665 816.292 238.958C816.585 239.251 816.75 239.648 816.75 240.062V243.188C816.75 243.602 816.585 243.999 816.292 244.292C815.999 244.585 815.602 244.75 815.188 244.75H812.062C811.648 244.75 811.251 244.585 810.958 244.292C810.665 243.999 810.5 243.602 810.5 243.188V240.062ZM823 240.062C823 239.648 823.165 239.251 823.458 238.958C823.751 238.665 824.148 238.5 824.562 238.5H858.938C859.352 238.5 859.749 238.665 860.042 238.958C860.335 239.251 860.5 239.648 860.5 240.062V243.188C860.5 243.602 860.335 243.999 860.042 244.292C859.749 244.585 859.352 244.75 858.938 244.75H824.562C824.148 244.75 823.751 244.585 823.458 244.292C823.165 243.999 823 243.602 823 243.188V240.062Z" fill="black"/>
</g>
<defs>
<clipPath id="clip0_70_632">
<rect x="798" y="176" width="100" height="100" fill="white"/>
</clipPath>
</defs>
</svg>
