<!-- Created with Inkscape (http://www.inkscape.org/) -->
<svg width="75" height="30" version="1.1" viewBox="0 0 19.844 7.9375" xmlns="http://www.w3.org/2000/svg" xmlns:xlink="http://www.w3.org/1999/xlink">
 <defs>
  <linearGradient id="a">
   <stop style="stop-color:#d45500" offset="0"/>
   <stop style="stop-color:#d45500;stop-opacity:0" offset="1"/>
  </linearGradient>
  <linearGradient id="d" x1="-426.87" x2="-179.04" y1="710.65" y2="383.39" gradientUnits="userSpaceOnUse">
   <stop style="stop-color:#d45500" offset="0"/>
   <stop style="stop-color:#d45500;stop-opacity:0" offset="1"/>
  </linearGradient>
  <linearGradient id="c" x1="-685.79" x2="-448.49" y1="287.47" y2="710.6" gradientUnits="userSpaceOnUse" xlink:href="#a"/>
  <linearGradient id="b" x1="-608.28" x2="-812.38" y1="550.99" y2="546.8" gradientUnits="userSpaceOnUse" xlink:href="#a"/>
 </defs>
 <g transform="matrix(.064561 0 0 .064561 17.816 -4.5595)" style="fill:#d62828">
  <path d="m-168.63 73.2c-6.1762 0-11.149 1.8294-11.149 4.1017v78.983c0 2.2723 4.9723 4.1017 11.149 4.1017 6.1762 0 11.148-1.8294 11.148-4.1017v-10.796h20.584v39.76c0 2.8747 4.9718 5.1892 11.148 5.1892s11.149-2.3145 11.149-5.1892v-76.808c0-2.8747-4.9723-5.1892-11.149-5.1892s-11.148 2.3145-11.148 5.1892v14.751h-20.584v-45.89c0-2.2723-4.9718-4.1017-11.148-4.1017z" style="fill:#d62828"/>
  <path d="m-199.94 100.31c-6.1762 0-11.149 2.0852-11.149 4.6754v62.857h-1.6725c-1.3578 0-2.4506 4.9723-2.4506 11.149s1.0929 11.149 2.4506 11.149h51.189c1.3578 0 2.4512-4.9723 2.4512-11.149s-1.0934-11.149-2.4512-11.149h-27.219v-62.857c0-2.5902-4.9723-4.6754-11.149-4.6754z" style="fill:#d62828"/>
  <path d="m-96.294 99.907c-2.7861 0-5.0292 4.9723-5.0292 11.149 0 5.9748 2.0992 10.822 4.7584 11.132l-13.028 22.566c-0.28742 0.49781-0.2481 1.1485 0.0621 1.893-0.27325 0.70351-0.29612 1.3192-0.0214 1.795l11.555 20.014c-1.9428 1.5408-3.3262 5.6467-3.3262 10.496 0 6.1762 2.2431 11.149 5.0292 11.149h50.556c2.7861 0 5.0292-4.9723 5.0292-11.149s-2.2431-11.149-5.0292-11.149h-26.89l-12.264-21.242 14.063-24.358h25.09c2.7861 0 5.0292-4.9718 5.0292-11.148s-2.2431-11.149-5.0292-11.149z" style="fill:#d62828"/>
 </g>
 <g transform="translate(44.462 63.949)">
  <rect x="-209.84" y="-49.715" width="8.4667" height="8.4667" rx="0" ry="0" style="fill-opacity:0;stroke-width:4.165"/>
  <g transform="matrix(.049175 0 0 .049175 -199.17 -52.166)">
   <path transform="scale(.26458)" d="m-643.41 284.29c-22.539 0-40.686 6.6762-40.686 14.969v288.24c0 8.2926 18.146 14.969 40.686 14.969 22.539 0 40.684-6.6762 40.684-14.969v-39.4h75.119v145.1c0 10.491 18.144 18.938 40.684 18.938 22.539 0 40.686-8.4465 40.686-18.938v-280.3c0-10.491-18.146-18.938-40.686-18.938-22.539 0-40.684 8.4465-40.684 18.938v53.832h-75.119v-167.47c0-8.2926-18.144-14.969-40.684-14.969z" style="fill:#a02c2c"/>
   <path transform="scale(.26458)" d="m-757.66 383.22c-22.539 0-40.686 7.6099-40.686 17.062v229.39h-6.1035c-4.955 0-8.9434 18.146-8.9434 40.686 0 22.539 3.9884 40.686 8.9434 40.686h186.81c4.955 0 8.9453-18.146 8.9453-40.686 0-22.539-3.9903-40.686-8.9453-40.686h-99.334v-229.39c0-9.4526-18.146-17.062-40.686-17.062z" style="fill:#a02c2c"/>
   <path transform="scale(.26458)" d="m-379.42 381.75c-10.168 0-18.354 18.146-18.354 40.686 0 21.804 7.6607 39.494 17.365 40.625l-47.545 82.352c-1.0489 1.8167-0.90539 4.1913 0.22656 6.9082-0.99721 2.5674-1.0807 4.8143-0.0781 6.5508l42.17 73.041c-7.09 5.623-12.139 20.607-12.139 38.305 0 22.539 8.1859 40.686 18.354 40.686h184.5c10.168 0 18.354-18.146 18.354-40.686 0-22.539-8.1859-40.686-18.354-40.686h-98.131l-44.756-77.52 51.322-88.893h91.564c10.168 0 18.354-18.144 18.354-40.684 0-22.539-8.1859-40.686-18.354-40.686z" style="fill:#a02c2c"/>
   <path transform="scale(.26458)" d="m-379.42 381.75c-10.168 0-18.354 18.146-18.354 40.686 0 21.804 7.6607 39.494 17.365 40.625l-47.545 82.352c-1.0489 1.8167-0.90539 4.1913 0.22656 6.9082-0.99721 2.5674-1.0807 4.8143-0.0781 6.5508l42.17 73.041c-7.09 5.623-12.139 20.607-12.139 38.305 0 22.539 8.1859 40.686 18.354 40.686h184.5c10.168 0 18.354-18.146 18.354-40.686 0-22.539-8.1859-40.686-18.354-40.686h-98.131l-44.756-77.52 51.322-88.893h91.564c10.168 0 18.354-18.144 18.354-40.684 0-22.539-8.1859-40.686-18.354-40.686z" style="fill:url(#d)"/>
   <path transform="scale(.26458)" d="m-643.41 284.29c-22.539 0-40.686 6.6762-40.686 14.969v288.24c0 8.2926 18.146 14.969 40.686 14.969 22.539 0 40.684-6.6762 40.684-14.969v-39.4h75.119v145.1c0 10.491 18.144 18.938 40.684 18.938 22.539 0 40.686-8.4465 40.686-18.938v-280.3c0-10.491-18.146-18.938-40.686-18.938-22.539 0-40.684 8.4465-40.684 18.938v53.832h-75.119v-167.47c0-8.2926-18.144-14.969-40.684-14.969z" style="fill:url(#c)"/>
   <path transform="scale(.26458)" d="m-757.66 383.22c-22.539 0-40.686 7.6099-40.686 17.062v229.39h-6.1035c-4.955 0-8.9434 18.146-8.9434 40.686 0 22.539 3.9884 40.686 8.9434 40.686h186.81c4.955 0 8.9453-18.146 8.9453-40.686 0-22.539-3.9903-40.686-8.9453-40.686h-99.334v-229.39c0-9.4526-18.146-17.062-40.686-17.062z" style="fill:url(#b)"/>
  </g>
 </g>
 <g transform="translate(230.82 -58.845)" style="fill:#1a1a1a">
  <path d="m-168.63 73.2c-6.1762 0-11.149 1.8294-11.149 4.1017v78.983c0 2.2723 4.9723 4.1017 11.149 4.1017 6.1762 0 11.148-1.8294 11.148-4.1017v-10.796h20.584v39.76c0 2.8747 4.9718 5.1892 11.148 5.1892s11.149-2.3145 11.149-5.1892v-76.808c0-2.8747-4.9723-5.1892-11.149-5.1892s-11.148 2.3145-11.148 5.1892v14.751h-20.584v-45.89c0-2.2723-4.9718-4.1017-11.148-4.1017z" style="fill:#1a1a1a"/>
  <path d="m-199.94 100.31c-6.1762 0-11.149 2.0852-11.149 4.6754v62.857h-1.6725c-1.3578 0-2.4506 4.9723-2.4506 11.149s1.0929 11.149 2.4506 11.149h51.189c1.3578 0 2.4512-4.9723 2.4512-11.149s-1.0934-11.149-2.4512-11.149h-27.219v-62.857c0-2.5902-4.9723-4.6754-11.149-4.6754z" style="fill:#1a1a1a"/>
  <path d="m-96.294 99.907c-2.7861 0-5.0292 4.9723-5.0292 11.149 0 5.9748 2.0992 10.822 4.7584 11.132l-13.028 22.566c-0.28742 0.49781-0.2481 1.1485 0.0621 1.893-0.27325 0.70351-0.29612 1.3192-0.0214 1.795l11.555 20.014c-1.9428 1.5408-3.3262 5.6467-3.3262 10.496 0 6.1762 2.2431 11.149 5.0292 11.149h50.556c2.7861 0 5.0292-4.9723 5.0292-11.149s-2.2431-11.149-5.0292-11.149h-26.89l-12.264-21.242 14.063-24.358h25.09c2.7861 0 5.0292-4.9718 5.0292-11.148s-2.2431-11.149-5.0292-11.149z" style="fill:#1a1a1a"/>
 </g>
 <g transform="translate(229.14 73.911)" style="fill:#ffffff">
  <path d="m-168.63 73.2c-6.1762 0-11.149 1.8294-11.149 4.1017v78.983c0 2.2723 4.9723 4.1017 11.149 4.1017 6.1762 0 11.148-1.8294 11.148-4.1017v-10.796h20.584v39.76c0 2.8747 4.9718 5.1892 11.148 5.1892s11.149-2.3145 11.149-5.1892v-76.808c0-2.8747-4.9723-5.1892-11.149-5.1892s-11.148 2.3145-11.148 5.1892v14.751h-20.584v-45.89c0-2.2723-4.9718-4.1017-11.148-4.1017z" style="fill:#ffffff"/>
  <path d="m-199.94 100.31c-6.1762 0-11.149 2.0852-11.149 4.6754v62.857h-1.6725c-1.3578 0-2.4506 4.9723-2.4506 11.149s1.0929 11.149 2.4506 11.149h51.189c1.3578 0 2.4512-4.9723 2.4512-11.149s-1.0934-11.149-2.4512-11.149h-27.219v-62.857c0-2.5902-4.9723-4.6754-11.149-4.6754z" style="fill:#ffffff"/>
  <path d="m-96.294 99.907c-2.7861 0-5.0292 4.9723-5.0292 11.149 0 5.9748 2.0992 10.822 4.7584 11.132l-13.028 22.566c-0.28742 0.49781-0.2481 1.1485 0.0621 1.893-0.27325 0.70351-0.29612 1.3192-0.0214 1.795l11.555 20.014c-1.9428 1.5408-3.3262 5.6467-3.3262 10.496 0 6.1762 2.2431 11.149 5.0292 11.149h50.556c2.7861 0 5.0292-4.9723 5.0292-11.149s-2.2431-11.149-5.0292-11.149h-26.89l-12.264-21.242 14.063-24.358h25.09c2.7861 0 5.0292-4.9718 5.0292-11.148s-2.2431-11.149-5.0292-11.149z" style="fill:#ffffff"/>
 </g>
 <g transform="matrix(.26459 0 0 .26459 -21.56 3.205)" style="fill:none">
  <circle cx="22" cy="22" r="22" fill="#003049"/>
 </g>
 <g transform="matrix(.26459 0 0 .26459 -30.528 4.7682)" style="fill:none">
  <circle cx="22" cy="22" r="22" fill="#d62828"/>
 </g>
 <g transform="matrix(.26459 0 0 .26459 -29.851 -4.3836)" style="fill:none">
  <circle cx="22" cy="22" r="22" fill="#eae2b7"/>
 </g>
 <g transform="matrix(.26459 0 0 .26459 -19.263 -2.1004)" style="fill:none">
  <circle cx="22" cy="22" r="22" fill="#ffffff"/>
 </g>
 <g transform="matrix(.26459 0 0 .26459 -25.406 -10.473)" style="fill:none">
  <circle cx="22" cy="22" r="22" fill="#fcbf49"/>
 </g>
 <g transform="matrix(.26459 0 0 .26459 -17.038 -7.5694)" style="fill:none">
  <circle cx="22" cy="22" r="22" fill="#f77f00"/>
 </g>
</svg>
