<svg width="110" height="69" viewBox="0 0 110 69" fill="none" xmlns="http://www.w3.org/2000/svg">
<g filter="url(#filter0_i_59_243)">
<path d="M26.0285 16.8481C25.7967 18.4521 27.0085 19.8098 28.5047 19.8098H28.51H32.6035C33.9839 19.8098 35.1008 18.624 35.4485 17.1689C36.6497 12.1677 40.3428 9.13726 45.6586 9.13726C51.8122 9.13726 55.8056 13.2562 55.8056 18.8646C55.8056 23.9803 53.8721 26.8618 48.4457 30.4824C42.2922 34.5555 39.5526 39.0238 39.7791 46.0186L39.7949 47.1643C39.8019 47.919 40.0825 48.6402 40.5757 49.1712C41.069 49.7022 41.735 50 42.4291 50H46.4858C47.1844 50 47.8545 49.6982 48.3485 49.1611C48.8425 48.6239 49.12 47.8953 49.12 47.1357V46.9638C49.12 41.8538 50.7743 39.2243 56.5695 35.4491C62.4965 31.525 66 26.1171 66 18.4177C66 7.79102 58.0078 0 46.1539 0C34.3052 0 27.4774 7.10357 26.0285 16.8481Z" fill="#D62828"/>
<path d="M49.808 58.272C49.808 59.1253 49.7067 59.904 49.504 60.608C49.3013 61.312 48.992 61.9253 48.576 62.448C48.16 62.96 47.632 63.36 46.992 63.648L49.744 66.72H46.64L44.544 64.16C44.512 64.16 44.48 64.16 44.448 64.16C44.4267 64.16 44.4 64.16 44.368 64.16C43.44 64.16 42.6293 64.0213 41.936 63.744C41.2533 63.456 40.688 63.056 40.24 62.544C39.8027 62.0213 39.472 61.3973 39.248 60.672C39.0347 59.9467 38.928 59.1413 38.928 58.256C38.928 57.072 39.12 56.0427 39.504 55.168C39.8987 54.2933 40.496 53.616 41.296 53.136C42.1067 52.6453 43.136 52.4 44.384 52.4C45.6213 52.4 46.64 52.6453 47.44 53.136C48.24 53.616 48.832 54.2987 49.216 55.184C49.6107 56.0587 49.808 57.088 49.808 58.272ZM41.472 58.272C41.472 59.072 41.5733 59.76 41.776 60.336C41.9787 60.912 42.2933 61.3547 42.72 61.664C43.1467 61.9733 43.696 62.128 44.368 62.128C45.0613 62.128 45.616 61.9733 46.032 61.664C46.4587 61.3547 46.768 60.912 46.96 60.336C47.1627 59.76 47.264 59.072 47.264 58.272C47.264 57.0667 47.04 56.1227 46.592 55.44C46.144 54.7573 45.408 54.416 44.384 54.416C43.7013 54.416 43.1467 54.5707 42.72 54.88C42.2933 55.1893 41.9787 55.632 41.776 56.208C41.5733 56.784 41.472 57.472 41.472 58.272ZM62.1104 59.968C62.1104 60.7573 61.9344 61.472 61.5824 62.112C61.241 62.7413 60.7184 63.2427 60.0144 63.616C59.321 63.9787 58.441 64.16 57.3744 64.16C55.8597 64.16 54.7077 63.776 53.9184 63.008C53.129 62.2293 52.7344 61.2053 52.7344 59.936V52.576H55.1504V59.568C55.1504 60.5067 55.3424 61.168 55.7264 61.552C56.1104 61.936 56.681 62.128 57.4384 62.128C57.9717 62.128 58.4037 62.0373 58.7344 61.856C59.065 61.6747 59.305 61.392 59.4544 61.008C59.6144 60.624 59.6944 60.1387 59.6944 59.552V52.576H62.1104V59.968ZM69.8201 64H64.6201V62.624L66.0121 61.984V54.592L64.6201 53.952V52.576H69.8201V53.952L68.4281 54.592V61.984L69.8201 62.624V64ZM79.8469 64H71.3509V62.432L76.8229 54.576H71.4949V52.576H79.7029V54.144L74.2309 62H79.8469V64ZM89.7525 64H81.2565V62.432L86.7285 54.576H81.4005V52.576H89.6085V54.144L84.1365 62H89.7525V64ZM98.7941 64H92.2181V52.576H98.7941V54.56H94.6341V57.072H98.5061V59.056H94.6341V62H98.7941V64ZM108.547 60.832C108.547 61.504 108.382 62.0907 108.051 62.592C107.721 63.0933 107.241 63.4827 106.611 63.76C105.993 64.0267 105.235 64.16 104.339 64.16C103.945 64.16 103.555 64.1333 103.171 64.08C102.798 64.0267 102.435 63.952 102.083 63.856C101.742 63.7493 101.417 63.6213 101.107 63.472V61.216C101.651 61.4507 102.211 61.6693 102.787 61.872C103.374 62.064 103.955 62.16 104.531 62.16C104.926 62.16 105.241 62.1067 105.475 62C105.721 61.8933 105.897 61.7493 106.003 61.568C106.121 61.3867 106.179 61.1787 106.179 60.944C106.179 60.656 106.078 60.4107 105.875 60.208C105.683 60.0053 105.422 59.8187 105.091 59.648C104.761 59.4667 104.382 59.2747 103.955 59.072C103.689 58.944 103.401 58.7947 103.091 58.624C102.782 58.4427 102.483 58.224 102.195 57.968C101.918 57.7013 101.689 57.3813 101.507 57.008C101.326 56.6347 101.235 56.1867 101.235 55.664C101.235 54.9813 101.39 54.4 101.699 53.92C102.019 53.4293 102.467 53.056 103.043 52.8C103.63 52.544 104.318 52.416 105.107 52.416C105.705 52.416 106.27 52.4853 106.803 52.624C107.347 52.7627 107.913 52.96 108.499 53.216L107.715 55.104C107.193 54.8907 106.723 54.7253 106.307 54.608C105.891 54.4907 105.465 54.432 105.027 54.432C104.729 54.432 104.473 54.48 104.259 54.576C104.046 54.672 103.881 54.8053 103.763 54.976C103.657 55.1467 103.603 55.3493 103.603 55.584C103.603 55.8507 103.683 56.08 103.843 56.272C104.003 56.4533 104.243 56.6293 104.563 56.8C104.883 56.9707 105.283 57.1733 105.763 57.408C106.35 57.6853 106.846 57.9733 107.251 58.272C107.667 58.5707 107.987 58.9227 108.211 59.328C108.435 59.7333 108.547 60.2347 108.547 60.832Z" fill="#393E46"/>
<path d="M8.1 59H6.288V55.304H2.892V59H1.08V50.432H2.892V53.792H6.288V50.432H8.1V59ZM14.0358 59H12.2238V51.944H9.89578V50.432H16.3638V51.944H14.0358V59ZM21.789 59L19.725 52.28H19.677C19.685 52.44 19.697 52.68 19.713 53C19.729 53.32 19.745 53.664 19.761 54.032C19.777 54.392 19.785 54.72 19.785 55.016V59H18.165V50.432H20.637L22.665 56.984H22.701L24.849 50.432H27.321V59H25.629V54.944C25.629 54.672 25.633 54.36 25.641 54.008C25.657 53.656 25.669 53.324 25.677 53.012C25.693 52.692 25.705 52.452 25.713 52.292H25.665L23.457 59H21.789ZM29.9653 59V50.432H31.7773V57.5H35.2573V59H29.9653Z" fill="#F77F00"/>
</g>
<defs>
<filter id="filter0_i_59_243" x="0" y="0" width="110" height="73" filterUnits="userSpaceOnUse" color-interpolation-filters="sRGB">
<feFlood flood-opacity="0" result="BackgroundImageFix"/>
<feBlend mode="normal" in="SourceGraphic" in2="BackgroundImageFix" result="shape"/>
<feColorMatrix in="SourceAlpha" type="matrix" values="0 0 0 0 0 0 0 0 0 0 0 0 0 0 0 0 0 0 127 0" result="hardAlpha"/>
<feOffset dy="4"/>
<feGaussianBlur stdDeviation="2"/>
<feComposite in2="hardAlpha" operator="arithmetic" k2="-1" k3="1"/>
<feColorMatrix type="matrix" values="0 0 0 0 0 0 0 0 0 0 0 0 0 0 0 0 0 0 0.25 0"/>
<feBlend mode="normal" in2="shape" result="effect1_innerShadow_59_243"/>
</filter>
</defs>
</svg>
