<svg width="122" height="93" viewBox="0 0 122 93" fill="none" xmlns="http://www.w3.org/2000/svg">
<g filter="url(#filter0_i_59_244)">
<path d="M19.5396 0C16.9489 0 14.8629 0.808069 14.8629 1.81174V36.699C14.8629 37.7027 16.9486 38.5106 19.5396 38.5106C22.13 38.5106 24.2157 37.7027 24.2157 36.699V31.9304H32.8498V49.4927C32.8498 50.7623 34.9353 51.7847 37.526 51.7847C40.1167 51.7847 42.2024 50.7623 42.2024 49.4927V15.566C42.2024 14.2962 40.1169 13.2739 37.526 13.2739C34.935 13.2739 32.8498 14.2962 32.8498 15.566V22.0815H24.2157V1.81174C24.2157 0.808069 22.13 0 19.5396 0V0Z" fill="#D62828"/>
</g>
<g filter="url(#filter1_i_59_244)">
<path d="M6.40602 11.9747C3.81533 11.9747 1.72948 12.8957 1.72948 14.0398V41.804H1.02794C0.458392 41.804 0 44.0004 0 46.7288C0 49.4568 0.458419 51.6532 1.02794 51.6532H22.4997C23.0692 51.6532 23.5279 49.4568 23.5279 46.7288C23.5279 44.0004 23.0692 41.804 22.4997 41.804H11.0825V14.0398C11.0825 12.8957 8.99672 11.9747 6.40575 11.9747H6.40602Z" fill="#D62828"/>
</g>
<g filter="url(#filter2_i_59_244)">
<path d="M49.8817 11.7966C48.7131 11.7966 47.7721 13.9929 47.7721 16.7212C47.7721 19.3603 48.6527 21.5013 49.7681 21.6381L44.3034 31.6057C44.1826 31.8256 44.1992 32.1129 44.3294 32.4419C44.2147 32.7526 44.205 33.0247 44.3203 33.2347L49.1673 42.0749C48.3524 42.7557 47.7721 44.5694 47.7721 46.7112C47.7721 49.4392 48.7128 51.6359 49.8817 51.6359H71.0879C72.2565 51.6359 73.1974 49.4395 73.1974 46.7112C73.1974 43.9828 72.2565 41.7867 71.0879 41.7867H59.8085L54.6642 32.404L60.5633 21.6448H71.0876C72.2562 21.6448 73.1971 19.4488 73.1971 16.7207C73.1971 13.9926 72.2562 11.7961 71.0876 11.7961L49.8817 11.7966Z" fill="#D62828"/>
</g>
<g filter="url(#filter3_i_59_244)">
<path d="M52.5438 29.7529C51.9184 32.5452 51.9223 35.4833 52.5555 38.2732C53.1887 41.0628 54.4288 43.6063 56.1514 45.648C57.874 47.6898 60.0184 49.1587 62.3701 49.9068C64.7217 50.6553 67.1977 50.6567 69.5502 49.9115C79.3388 38.3015 69.5502 49.9115 79.3388 38.3015C79.9698 35.5089 79.9709 32.5685 79.3416 29.7754C78.7123 26.9826 77.4749 24.435 75.754 22.3886C74.0328 20.3425 71.8883 18.8693 69.5358 18.1173C67.1831 17.3653 64.7054 17.3608 62.351 18.1043L72.2506 29.8571L70.5673 39.5029L62.4435 41.5003L52.5438 29.7529Z" fill="#393E46"/>
</g>
<path d="M75.9956 53.562L74.3319 51.81L80.8104 44.988L78.673 42.7372L80.0612 41.2754L85.9998 47.5289L84.6115 48.9907L82.4741 46.7399L75.9956 53.562ZM90.2149 60.2282C89.6052 60.8701 88.9735 61.3729 88.3198 61.7364C87.6808 62.1 87.0271 62.3088 86.3586 62.3629C85.6976 62.4248 85.0328 62.3049 84.3644 62.0033C83.7034 61.7094 83.0533 61.2259 82.4143 60.553C81.7752 59.8801 81.3125 59.1917 81.026 58.4878C80.7543 57.784 80.6404 57.084 80.6845 56.3879C80.7432 55.6917 80.9452 54.9995 81.2905 54.3111C81.643 53.6304 82.1241 52.9691 82.7338 52.3271C83.5491 51.4686 84.3901 50.8614 85.2569 50.5056C86.1309 50.1576 87.0087 50.0996 87.8901 50.3316C88.7862 50.5636 89.664 51.1321 90.5234 52.0371C91.3754 52.9343 91.9079 53.8509 92.121 54.7868C92.3413 55.715 92.2789 56.6393 91.9337 57.5597C91.6031 58.4801 91.0302 59.3696 90.2149 60.2282ZM84.4746 54.1835C83.9237 54.7636 83.5197 55.336 83.2626 55.9006C83.0056 56.4652 82.9174 57.0144 82.9982 57.5481C83.079 58.0818 83.3508 58.5923 83.8135 59.0796C84.291 59.5823 84.7794 59.8724 85.2789 59.9497C85.7857 60.0348 86.3036 59.9381 86.8324 59.6597C87.3686 59.3889 87.9122 58.9635 88.463 58.3834C89.2931 57.5094 89.7889 56.6625 89.9504 55.8426C90.112 55.0227 89.8403 54.2415 89.1351 53.499C88.665 53.0039 88.1766 52.7139 87.6698 52.6288C87.1629 52.5437 86.6414 52.6365 86.1052 52.9073C85.569 53.178 85.0255 53.6034 84.4746 54.1835ZM98.9839 69.4622C98.3743 70.1042 97.7426 70.607 97.0889 70.9705C96.4498 71.334 95.7961 71.5429 95.1277 71.597C94.4666 71.6589 93.8019 71.539 93.1335 71.2373C92.4724 70.9434 91.8224 70.46 91.1833 69.7871C90.5443 69.1142 90.0815 68.4258 89.7951 67.7219C89.5233 67.0181 89.4095 66.3181 89.4535 65.6219C89.5123 64.9258 89.7143 64.2336 90.0595 63.5452C90.4121 62.8645 90.8932 62.2032 91.5028 61.5612C92.3182 60.7027 93.1592 60.0955 94.0259 59.7397C94.9 59.3916 95.7777 59.3336 96.6592 59.5657C97.5553 59.7977 98.433 60.3662 99.2924 61.2712C100.144 62.1684 100.677 63.085 100.89 64.0209C101.11 64.949 101.048 65.8733 100.703 66.7938C100.372 67.7142 99.7992 68.6037 98.9839 69.4622ZM93.2437 63.4175C92.6928 63.9977 92.2888 64.57 92.0317 65.1347C91.7746 65.6993 91.6865 66.2485 91.7673 66.7821C91.8481 67.3158 92.1198 67.8263 92.5826 68.3136C93.06 68.8164 93.5485 69.1064 94.048 69.1838C94.5548 69.2689 95.0726 69.1722 95.6015 68.8937C96.1377 68.623 96.6812 68.1976 97.2321 67.6175C98.0621 66.7435 98.5579 65.8965 98.7195 65.0766C98.8811 64.2568 98.6093 63.4756 97.9042 62.733C97.4341 62.238 96.9456 61.948 96.4388 61.8629C95.932 61.7778 95.4105 61.8706 94.8743 62.1413C94.3381 62.412 93.7945 62.8374 93.2437 63.4175ZM96.6691 75.3317L104.536 67.0478L106.199 68.7997L99.71 75.6333L102.905 78.9979L101.528 80.4482L96.6691 75.3317ZM109.719 84.4791C109.256 84.9664 108.738 85.2719 108.165 85.3957C107.592 85.5194 106.994 85.4537 106.369 85.1984C105.76 84.9432 105.146 84.4907 104.529 83.841C104.258 83.5548 104.008 83.2532 103.78 82.936C103.56 82.6266 103.362 82.3095 103.185 81.9847C103.024 81.6598 102.888 81.3311 102.778 80.9985L104.331 79.3626C104.544 79.9272 104.779 80.4919 105.036 81.0565C105.308 81.6211 105.642 82.1123 106.039 82.53C106.311 82.8161 106.564 83.0056 106.799 83.0985C107.042 83.199 107.262 83.2222 107.46 83.1681C107.666 83.1217 107.85 83.0134 108.011 82.8432C108.209 82.6344 108.309 82.383 108.309 82.0891C108.316 81.8029 108.265 81.478 108.154 81.1145C108.052 80.7432 107.923 80.3294 107.769 79.8731C107.673 79.5869 107.578 79.2698 107.482 78.9217C107.394 78.5659 107.339 78.1908 107.317 77.7963C107.31 77.4018 107.372 77.0035 107.504 76.6013C107.637 76.1991 107.883 75.8085 108.242 75.4295C108.713 74.9345 109.219 74.6251 109.763 74.5013C110.321 74.3776 110.887 74.4317 111.46 74.6638C112.04 74.9035 112.602 75.3096 113.145 75.882C113.557 76.3151 113.898 76.7753 114.17 77.2626C114.449 77.7576 114.703 78.3107 114.93 78.9217L113.09 79.7223C112.877 79.1886 112.668 78.7284 112.462 78.3416C112.257 77.9549 112.003 77.603 111.702 77.2858C111.496 77.0693 111.287 76.9184 111.074 76.8333C110.861 76.7483 110.655 76.7251 110.457 76.7637C110.266 76.8101 110.09 76.9184 109.928 77.0886C109.745 77.282 109.642 77.5063 109.62 77.7615C109.605 78.009 109.649 78.3107 109.752 78.6665C109.855 79.0223 109.991 79.4593 110.16 79.9775C110.373 80.604 110.516 81.1725 110.589 81.683C110.67 82.2012 110.648 82.6885 110.523 83.1449C110.398 83.6012 110.13 84.046 109.719 84.4791Z" fill="#393E46"/>
<defs>
<filter id="filter0_i_59_244" x="14.8629" y="0" width="27.3396" height="55.7817" filterUnits="userSpaceOnUse" color-interpolation-filters="sRGB">
<feFlood flood-opacity="0" result="BackgroundImageFix"/>
<feBlend mode="normal" in="SourceGraphic" in2="BackgroundImageFix" result="shape"/>
<feColorMatrix in="SourceAlpha" type="matrix" values="0 0 0 0 0 0 0 0 0 0 0 0 0 0 0 0 0 0 127 0" result="hardAlpha"/>
<feOffset dy="3.99705"/>
<feGaussianBlur stdDeviation="1.99853"/>
<feComposite in2="hardAlpha" operator="arithmetic" k2="-1" k3="1"/>
<feColorMatrix type="matrix" values="0 0 0 0 0 0 0 0 0 0 0 0 0 0 0 0 0 0 0.25 0"/>
<feBlend mode="normal" in2="shape" result="effect1_innerShadow_59_244"/>
</filter>
<filter id="filter1_i_59_244" x="0" y="11.9747" width="23.5279" height="43.6755" filterUnits="userSpaceOnUse" color-interpolation-filters="sRGB">
<feFlood flood-opacity="0" result="BackgroundImageFix"/>
<feBlend mode="normal" in="SourceGraphic" in2="BackgroundImageFix" result="shape"/>
<feColorMatrix in="SourceAlpha" type="matrix" values="0 0 0 0 0 0 0 0 0 0 0 0 0 0 0 0 0 0 127 0" result="hardAlpha"/>
<feOffset dy="3.99705"/>
<feGaussianBlur stdDeviation="1.99853"/>
<feComposite in2="hardAlpha" operator="arithmetic" k2="-1" k3="1"/>
<feColorMatrix type="matrix" values="0 0 0 0 0 0 0 0 0 0 0 0 0 0 0 0 0 0 0.25 0"/>
<feBlend mode="normal" in2="shape" result="effect1_innerShadow_59_244"/>
</filter>
<filter id="filter2_i_59_244" x="44.2216" y="11.7961" width="28.9758" height="43.8368" filterUnits="userSpaceOnUse" color-interpolation-filters="sRGB">
<feFlood flood-opacity="0" result="BackgroundImageFix"/>
<feBlend mode="normal" in="SourceGraphic" in2="BackgroundImageFix" result="shape"/>
<feColorMatrix in="SourceAlpha" type="matrix" values="0 0 0 0 0 0 0 0 0 0 0 0 0 0 0 0 0 0 127 0" result="hardAlpha"/>
<feOffset dy="3.99705"/>
<feGaussianBlur stdDeviation="1.99853"/>
<feComposite in2="hardAlpha" operator="arithmetic" k2="-1" k3="1"/>
<feColorMatrix type="matrix" values="0 0 0 0 0 0 0 0 0 0 0 0 0 0 0 0 0 0 0.25 0"/>
<feBlend mode="normal" in2="shape" result="effect1_innerShadow_59_244"/>
</filter>
<filter id="filter3_i_59_244" x="52.0776" y="17.55" width="27.7352" height="36.9164" filterUnits="userSpaceOnUse" color-interpolation-filters="sRGB">
<feFlood flood-opacity="0" result="BackgroundImageFix"/>
<feBlend mode="normal" in="SourceGraphic" in2="BackgroundImageFix" result="shape"/>
<feColorMatrix in="SourceAlpha" type="matrix" values="0 0 0 0 0 0 0 0 0 0 0 0 0 0 0 0 0 0 127 0" result="hardAlpha"/>
<feOffset dy="3.99705"/>
<feGaussianBlur stdDeviation="1.99853"/>
<feComposite in2="hardAlpha" operator="arithmetic" k2="-1" k3="1"/>
<feColorMatrix type="matrix" values="0 0 0 0 0 0 0 0 0 0 0 0 0 0 0 0 0 0 0.25 0"/>
<feBlend mode="normal" in2="shape" result="effect1_innerShadow_59_244"/>
</filter>
</defs>
</svg>
